<svg xmlns="http://www.w3.org/2000/svg" width="32" height="32" viewBox="0 0 488 488">
  <style>
    @media (prefers-color-scheme: light) {
      .logo { fill: #000; }
    }
    @media (prefers-color-scheme: dark) {
      .logo { fill: #fff; }
    }
  </style>
  <path class="logo" fill="currentColor" d="M138.423 178.122v139.286a121.312 121.312 0 0 0 100.897-69.659c-18.512-39.774-57.179-66.357-100.897-69.627ZM379.435 339.96h-9.123c-51.16 0-96.989-27.535-121.368-71.533A139.528 139.528 0 0 1 129.3 335.991h-9.121V159.539h9.121a139.562 139.562 0 0 1 128.389 84.63c17.314 44.323 57.289 73.765 103.502 77.208V168.675h18.244V339.96ZM244 18.244C119.519 18.244 18.244 119.52 18.244 244S119.52 469.756 244 469.756 469.756 368.481 469.756 244 368.481 18.244 244 18.244ZM244 488C109.458 488 0 378.543 0 244S109.458 0 244 0c134.543 0 244 109.457 244 244S378.543 488 244 488Z"/>
</svg>